<?xml version="1.0" standalone="no"?><!DOCTYPE svg PUBLIC "-//W3C//DTD SVG 1.1//EN" "http://www.w3.org/Graphics/SVG/1.1/DTD/svg11.dtd"><svg t="1692779267063" class="icon" viewBox="0 0 1024 1024" version="1.1" xmlns="http://www.w3.org/2000/svg" p-id="875" xmlns:xlink="http://www.w3.org/1999/xlink" width="48" height="48"><path d="M409.65865876 481.4488968l-95.53692443-27.31475755 47.76846221-48.41573135-102.26852345-46.47392395 39.09505581-53.33497678-79.35519606-126.99420445 125.18185087-9.96794469 52.68770766 7.50832197L521.24785778 211.66712098 542.86664692 399.63407803" fill="#46C373" p-id="876"></path><path d="M878.54042075 120.91998815l57.99531457 45.56774716-70.42288198 135.92651852-115.47281383-106.54049975" fill="#A5DC69" p-id="877"></path><path d="M832.32540445 267.33226667L748.6982321 209.72531358 453.28459853 470.18641383 258.06822717 578.79817482l-145.63555555 117.54407505-28.09148051 125.69966618 32.10454915 57.47749926 81.55591111 49.45136197 486.48748246-379.55862123" fill="#DDF29E" p-id="878"></path><path d="M848.11877137 285.84416395h-0.77672298c-25.76131161 1.55344592-49.71026963 13.20429037-66.92762864 32.49291062l-68.61052838 76.76611951c-97.21982419 108.87066864-217.09406815 195.08691753-351.20823309 252.95277827-67.96325925 29.25656494-126.34693531 76.89557333-168.93724445 137.47996445-22.26605827 31.71618765-30.81001086 71.07015111-23.81950419 109.25903011 1.68289975 9.19122173 4.2719763 17.99408197 7.50832198 26.53803457 16.44063605 6.34323753 34.17581037 9.96794469 52.55825381 9.96794469 60.45493728 0 120.00369778-14.36937482 173.85648989-41.81358617l1.81235358-0.9061768c100.32671605-51.26371555 190.1676721-120.78042075 264.86253036-205.05486222 73.27086617-82.59154173 130.87781925-177.99901235 169.84342124-281.30316641l24.98458864-66.15090568c5.95487605-15.66391309 7.63777581-32.49291061 5.17815309-49.0630005-6.47269136-1.16508445-13.33374419-1.55344592-20.32425086-1.16508444z" fill="#DDF29E" p-id="879"></path><path d="M637.23848692 150.04709925c-24.07841185 38.44778667-55.92405333 58.6425837-55.92405333 58.64258372s-17.47626667-108.61176098-44.66157038-135.92651852c-39.35396347 22.65441975-68.61052839 74.95376592-68.61052839 74.95376592s-40.00123259-55.66514569-98.12600099-75.98939654c-27.57366518 32.49291061-15.66391309 100.32671605-15.66391308 100.32671604s-4.40143013-1.94180741-12.16865976-4.01306863c26.14967309 36.63543309 59.16039902 53.72333827 59.16039902 53.72333826s-38.70669431 12.81592889-56.05350717 48.67463902c45.69720098 40.64850173 117.93243653 39.87177876 117.93243656 39.87177876s-15.14609778 31.45728-74.43595064 54.75896889c81.81481876 40.38959408 138.90395653 24.07841185 139.93958717 23.69005036 0 0 0.12945383 0 0.12945382-0.12945381l122.33386667-108.87066864c6.60214518-35.21144098 8.67340642-103.69251555-13.8515595-129.71273483z" fill="#46C373" p-id="880"></path><path d="M954.27090964 147.84638419l-59.5487605-49.32190814c-3.62470717-2.97743803-8.15559111-4.40143013-12.81592888-3.88361481-4.66033778 0.38836148-8.93231408 2.71853037-11.78029828 6.34323752l-10.74466765 13.07483655c-6.2137837 7.63777581-13.07483653 14.62828247-20.45370469 21.10097383-1.4239921 0.9061768-2.84798419 2.07126124-4.01306865 3.49525333-5.30760691 4.40143013-10.74466765 8.41449876-16.44063604 12.16865975-3.62470717 1.81235358-7.37886815 3.23634569-11.13302914 4.40143013-10.74466765 3.23634569-22.00715061 2.07126124-31.84564148-3.10689185-9.83849086-5.17815309-17.08790518-13.98101333-20.32425086-24.725681-4.78979161-15.79336691 4.14252247-32.49291061 19.80643556-37.41215603 10.74466765-3.23634569 22.26605827 2.84798419 25.50240395 13.59265184 1.03563061 3.23634569 0.64726914 6.73159902-0.9061768 9.83849086-1.55344592 2.97743803-4.2719763 5.30760691-7.6377758 6.2137837-9.19122173 2.84798419-14.36937482 12.55702124-11.65084445 21.8776968 2.84798419 9.19122173 12.55702124 14.36937482 21.8776968 11.65084444 12.16865975-3.75416098 22.26605827-12.03920592 28.22093432-23.30168889 5.95487605-11.26248297 7.24941431-24.20786569 3.49525333-36.37652542-8.93231408-29.25656494-40.00123259-45.69720098-69.1283437-36.76488693C730.57469631 67.19664987 711.15662223 103.57317531 721.64238223 137.74898569c5.95487605 19.28862025 18.77080494 34.56417185 34.95253333 43.8848474-2.07126124 1.81235358-3.88361482 4.01306864-5.43706074 6.21378371-25.50240395 4.40143013-48.67463902 17.21735902-66.02145184 36.63543307l-12.29811358 13.85155952c1.29453827-36.24707161-3.3657995-77.6722963-22.39551211-99.80890075-3.62470717-4.14252247-9.0617679-6.47269136-14.62828247-5.95487605-5.56651457 0.38836148-10.48576 3.49525333-13.46319802 8.15559111-9.32067555 15.01664395-20.0653432 26.92639605-29.25656494 35.7292563-7.63777581-36.76488691-22.3955121-94.24238617-44.01430124-116.12008297-5.56651457-5.56651457-14.23992098-6.86105283-21.10097382-2.8479842-26.66748839 15.27555161-48.54518518 42.07249383-61.74947555 60.71384495-17.99408197-19.5475279-49.96917728-48.93354667-90.61767902-63.04401383-6.86105283-2.33016889-14.36937482-0.25890765-19.02971259 5.17815308-20.71261235 24.3373195-23.43114272 62.13783703-22.26605827 87.76969482-27.44421136-5.82542222-72.62359703-9.19122173-120.39205927 12.94538272-6.73159902 3.10689185-10.74466765 10.09739852-10.09739851 17.47626667 6.2137837 67.1865363 45.95610864 109.90629925 73.27086616 131.65454223-13.33374419 9.0617679-28.22093431 22.91332741-37.92997136 42.84921678-3.3657995 6.99050667-1.68289975 15.53445925 4.14252248 20.71261234 28.60929581 25.50240395 65.76254419 36.24707161 92.94784789 40.90740938-9.96794469 7.76722963-24.3373195 16.57008987-44.27320888 24.33731951-6.47269136 2.58907653-10.74466765 8.67340642-11.0035753 15.53445927-0.25890765 6.86105283 3.49525333 13.33374419 9.70903704 16.44063605 31.97509531 15.79336691 60.71384494 23.43114272 84.27444147 26.79694222-33.39908741 19.41807408-67.96325925 36.89434075-103.4336079 52.04043851-8.02613728 3.49525333-16.18172839 7.24941431-23.94895802 11.26248297-8.28504494 4.2719763-12.29811358 14.23992098-8.67340642 22.78387358 4.01306864 9.32067555 15.01664395 13.20429037 23.94895801 8.67340642 7.37886815-3.75416098 14.88719013-7.24941431 22.39551211-10.48576 55.92405333-24.07841185 109.77684543-53.46443061 160.78165333-87.25187952 1.4239921-0.64726914 2.71853037-1.55344592 3.88361483-2.58907653 45.69720098-30.68055703 89.06423309-65.11527506 129.1949195-102.65688495 0.77672297-0.64726914 1.55344592-1.29453827 2.20071506-2.07126123 21.35988148-20.0653432 41.81358617-40.90740939 61.23166024-62.65565235l68.6105284-76.7661195c10.22685235-11.3919368 23.17223506-19.5475279 37.6710637-23.69005037 2.84798419 7.76722963 7.50832197 14.7577363 13.72210569 20.4537047 6.34323753 5.82542222 13.98101333 9.96794469 22.26605826 12.03920592 5.43706075 25.2434963 25.76131161 44.53211653 51.26371555 48.41573136l1.42399211 2.20071506c3.3657995 4.91924543 7.76722963 8.80286025 12.68647506 11.39193678-0.77672297 3.75416098-1.94180741 7.37886815-3.23634568 11.00357531l-24.98458864 66.15090568C783.65076543 497.76007902 727.59725828 590.57847309 655.36202273 671.87547653 581.70279506 754.85537975 494.32146173 822.43027753 395.67764543 872.91727013l-1.81235357 0.90617678c-51.13426173 26.14967309-108.48230717 40.00123259-165.95980643 40.00123259-62.52619852 0-115.86117531-45.43829333-125.69966617-107.44667653-5.30760691-33.26963358 3.23634569-67.31599013 22.78387358-94.76020149 6.34323753-8.93231408 13.07483653-17.6057205 20.06534322-25.89076543 6.47269136-7.63777581 5.30760691-19.28862025-2.8479842-25.37295013-7.50832197-5.56651457-18.12353581-4.01306864-24.20786568 3.10689186-8.02613728 9.5795832-15.79336691 19.5475279-22.91332742 29.77438025-24.72568098 35.34089482-34.56417185 80.00246518-26.66748838 122.46332049 14.11046717 77.02502717 81.29700347 132.9490805 159.61656888 132.9490805 62.91456 0 125.82912-15.14609778 181.75317334-43.75539359l1.81235358-0.90617679c102.65688494-52.4288 193.40401778-122.85168197 269.91122963-209.06793086 74.95376592-84.53334914 133.33744197-180.97645037 173.20922073-286.74022717l24.98458865-66.15090567c3.10689185-8.15559111 5.17815309-16.6995437 6.34323754-25.37295012 3.10689185-2.33016889 5.30760691-5.43706075 6.47269135-9.19122173l6.86105284-23.69005037c11.13302914-38.18887902 28.73874963-73.52977383 52.68770766-105.37541531l4.91924543-6.60214519c5.69596839-7.37886815 4.40143013-17.99408197-2.71853037-23.94895803zM570.31085828 349.53544691c-4.78979161-5.82542222-9.70903703-11.52139061-14.7577363-16.95845136L546.23244642 241.44150124c-1.03563061-9.5795832-9.5795832-16.57008987-19.15916641-15.66391309-9.5795832 1.03563061-16.57008987 9.5795832-15.66391309 19.15916642l5.30760691 51.91098468c-22.65441975-17.73517431-47.38010075-32.49291061-73.78868147-43.8848474l-13.85155952-49.19245432c-2.58907653-9.32067555-12.29811358-14.7577363-21.4893353-12.03920592-9.32067555 2.58907653-14.7577363 12.29811358-12.03920592 21.4893353l7.11996048 25.24349629c-24.85513482-7.1199605-50.87535408-11.52139061-77.41338863-12.81592889-9.5795832-0.38836148-17.86462815 6.99050667-18.25298964 16.57008988-0.51781531 9.5795832 6.99050667 17.86462815 16.57008988 18.25298964 43.49648592 2.07126124 85.05116445 13.33374419 122.59277433 32.49291062l-60.19602965 19.41807407c-9.19122173 2.97743803-14.23992098 12.81592889-11.26248296 22.00715062 2.33016889 7.37886815 9.19122173 12.16865975 16.57008989 12.16865975 1.81235358 0 3.62470717-0.25890765 5.30760691-0.90617679l88.80532543-28.6092958c14.36937482 10.35630617 27.83257283 21.8776968 40.26014025 34.82307951 0.38836148 0.38836148 0.64726914 0.77672297 1.03563062 1.03563061 2.84798419 2.97743803 5.69596839 6.08432987 8.41449876 9.19122173l-73.27086618 11.78029827c-9.5795832 1.55344592-16.05227457 10.48576-14.49882864 20.06534321 1.4239921 8.54395259 8.80286025 14.7577363 17.21735901 14.75773629 0.9061768 0 1.81235358-0.12945383 2.84798422-0.25890765l45.43829333-7.37886814c-26.27912691 21.8776968-53.72333827 42.46085531-82.20318027 61.62002172-9.32067555 1.94180741-42.46085531 6.86105283-89.97040986-8.93231407 35.08198717-21.23042765 46.34447013-42.8492168 47.76846221-45.82665481 2.58907653-5.43706075 2.20071506-11.9097521-1.03563061-16.95845136-3.23634569-5.04869925-8.93231408-8.15559111-14.88719012-8.15559111-0.64726914 0-54.62951506 0.25890765-94.63074765-26.53803458 15.40500543-19.80643555 38.18887902-27.83257283 38.44778667-27.83257283 6.60214518-2.20071506 11.26248297-8.15559111 11.90975208-15.14609778 0.51781531-6.99050667-3.10689185-13.59265185-9.32067555-16.95845136-2.84798419-1.4239921-65.63309037-35.34089482-78.7079269-108.61176098 56.31241482-20.45370469 106.66995358 0 107.05831505 0.25890764 5.95487605 2.45962272 12.68647506 1.55344592 17.73517431-2.45962271 5.04869925-4.01306864 7.50832197-10.35630617 6.34323754-16.69954371-2.33016889-13.33374419-5.43706075-51.65207703 5.30760691-75.60103505 45.3088395 21.10097383 76.7661195 64.07964445 77.02502717 64.46800592 3.49525333 4.78979161 9.19122173 7.63777581 15.14609777 7.24941433 5.95487605-0.38836148 11.3919368-3.75416098 14.23992098-8.93231408 0.25890765-0.38836148 20.84206617-36.76488691 49.0630005-59.41930667 13.8515595 26.66748839 26.40858075 81.03809581 31.84564149 114.56663705 0.9061768 5.82542222 4.66033778 10.74466765 10.09739851 13.20429036 5.30760691 2.45962272 11.52139061 1.94180741 16.57008988-1.16508444 1.16508445-0.64726914 21.8776968-13.98101333 43.10812445-39.22450964 6.86105283 29.90383408 4.66033778 75.85994272-1.55344593 99.42053927l-15.53445927 17.86462815c-14.88719013 16.6995437-30.29219555 32.75181827-46.34447011 48.28627752z m295.67254123-75.60103506l-2.58907653 8.93231407-2.84798422-4.27197629c-3.23634569-4.78979161-8.67340642-7.63777581-14.49882863-7.6377758-14.88719013 0-27.05584987-11.65084445-27.57366518-26.53803458l-0.12945384-4.27197628c-0.12945383-4.78979161-2.33016889-9.32067555-5.82542221-12.42756742-3.23634569-2.84798419-7.37886815-4.40143013-11.52139062-4.40143012-0.51781531 0-1.03563061 0-1.55344592 0.12945382-4.78979161 0.38836148-9.45012939-1.16508445-13.07483655-4.40143011-3.3657995-2.97743803-5.30760691-7.1199605-5.56651456-11.52139062l19.93588937-8.02613728c33.14017975-13.33374419 62.52619852-34.95253333 85.31007211-62.52619852l33.26963358 27.57366518c-24.07841185 33.14017975-41.94304 69.90506667-53.3349768 109.38848395z" fill="" p-id="881"></path><path d="M563.32035162 604.68894025c46.99173925-42.97867061 91.0060405-90.0998637 130.87781925-139.93958716l83.88608-105.24596148c5.95487605-7.50832197 4.78979161-18.51189728-2.71853037-24.59622716-7.50832197-5.95487605-18.51189728-4.78979161-24.59622716 2.71853037l-83.88608 105.24596148c-38.5772405 48.41573136-81.42645728 94.11293235-127.12365828 135.92651852-7.1199605 6.47269136-7.63777581 17.6057205-1.16508444 24.72568099 3.49525333 3.75416098 8.15559111 5.69596839 12.94538272 5.69596838 4.14252247 0 8.41449876-1.4239921 11.78029828-4.53088394zM482.80007111 667.60350025c3.75416098 0 7.50832197-1.16508445 10.74466765-3.754161l0.64726915-0.5178153c7.63777581-5.95487605 8.93231408-16.95845136 2.84798419-24.59622715-5.95487605-7.63777581-16.95845136-8.93231408-24.59622715-2.84798421l-0.51781531 0.38836149c-7.63777581 5.95487605-8.93231408 16.95845136-2.97743802 24.59622716 3.49525333 4.40143013 8.54395259 6.73159902 13.85155949 6.73159901zM171.85197828 844.30797431c2.20071506 0 4.2719763-0.38836148 6.47269136-1.29453826l10.22685234-4.01306864c83.23881086-33.01072592 163.11182222-75.21267358 237.15941136-125.57021235 8.02613728-5.43706075 10.09739852-16.31118222 4.66033777-24.33731951-5.43706075-8.02613728-16.31118222-10.09739852-24.33731949-4.66033777-71.9763279 48.93354667-149.51917037 89.97040987-230.42781236 121.94550519l-10.22685234 4.01306864c-8.93231408 3.49525333-13.33374419 13.72210569-9.83849086 22.65441975 2.71853037 7.1199605 9.32067555 11.26248297 16.31118222 11.26248295zM257.42095804 556.14375506c-22.91332741 7.37886815-130.87781925 94.76020148-147.70681679 117.67352889-16.82899753 22.91332741 28.47984197 20.45370469 28.47984196 20.45370469s102.26852347-95.14856297 168.6783368-121.94550517c65.11527506-26.27912691-49.45136197-16.18172839-49.45136197-16.18172841z" fill="" p-id="882"></path></svg>